# xmcd CD database file
#
# Track frame offsets:
#	150
#	13312
#	28374
#	51717
#	64894
#	74401
#	90329
#	105067
#	116440
#	126430
#	135812
#	153273
#	163601
#	178849
#	191805
#	203927
#	214739
#	226582
#	239936
#	250176
#	262887
#	273217
#	285209
#	297303
#	309352
#	322256
#	331932
#	345201
#
# Disc length: 4756 seconds
#
# Revision: 0
# Processed by: cddbd v1.5.2PL0 Copyright (c) Steve Scherf et al.
# Submitted via: CDex 1.70beta2
#
DISCID=9c12921c
DTITLE=Waylon Jennings - The Dark Side Of Fame
DYEAR=2010
DGENRE=Country
TTITLE0=Don't Play The Game
TTITLE1=Delia's Gone
TTITLE2=MacArthur Park
TTITLE3=Love Of The Common People
TTITLE4=Destiny's Child
TTITLE5=The House Song
TTITLE6=Games People Play
TTITLE7=Grey Eyes You Know
TTITLE8=(I'd Be) A Legend In My Time
TTITLE9=The Chokin' Kind
TTITLE10=Sunday Mornin' Comin' Down
TTITLE11=Where Love Has Died
TTITLE12=The Days Of Sand And Shovels
TTITLE13=The Road
TTITLE14=Beautiful Annabel Lee
TTITLE15=Julie
TTITLE16=Yes, Virginia
TTITLE17=Singer Of Sad Songs
TTITLE18=Six Strings Away
TTITLE19=Cedartown Georgia
TTITLE20=Just To Satisfy You
TTITLE21=For The Kids
TTITLE22=Another Bridge To Burn
TTITLE23=Just Across The Way
TTITLE24=I've Been Needing Someone Like You
TTITLE25=Rock, Salt And Nails
TTITLE26=Life Goes On
TTITLE27=The Dark Side Of Fame
EXTD=YEAR: 2010
EXTT0=
EXTT1=
EXTT2=
EXTT3=
EXTT4=
EXTT5=
EXTT6=
EXTT7=
EXTT8=
EXTT9=
EXTT10=
EXTT11=
EXTT12=
EXTT13=
EXTT14=
EXTT15=
EXTT16=
EXTT17=
EXTT18=
EXTT19=
EXTT20=
EXTT21=
EXTT22=
EXTT23=
EXTT24=
EXTT25=
EXTT26=
EXTT27=
PLAYORDER=
